<?xml version="1.0" encoding="utf-8"?>
<!-- Generator: Adobe Illustrator 23.0.3, SVG Export Plug-In . SVG Version: 6.00 Build 0)  -->
<svg version="1.1" id="Layer_1" xmlns="http://www.w3.org/2000/svg" xmlns:xlink="http://www.w3.org/1999/xlink" x="0px" y="0px"
	 viewBox="0 0 69.6 69.6" style="enable-background:new 0 0 69.6 69.6;" xml:space="preserve">
<style type="text/css">
	.st0{fill:#28B0EE;}
	.st1{fill:#00A25F;}
	.st2{fill:#BBAA7C;}
	.st3{fill:#010101;}
	.st4{fill:#020202;}
	.st5{fill:#3ACE01;}
	.st6{fill:#040404;}
	.st7{fill:#050505;}
	.st8{fill:#00B3F6;}
	.st9{fill:#0456B8;}
	.st10{fill:#0354BD;}
	.st11{fill:#9FDA55;}
	.st12{fill:#FFAA0C;}
	.st13{fill:#E81D52;}
	.st14{fill:#FF563B;}
	.st15{fill:#F50028;}
	.st16{fill:#FFA116;}
	.st17{fill:url(#SVGID_1_);}
	.st18{fill:url(#SVGID_2_);}
	.st19{fill:url(#SVGID_3_);}
	.st20{fill:url(#SVGID_4_);}
	.st21{fill:url(#SVGID_5_);}
	.st22{fill:url(#SVGID_6_);}
	.st23{fill:url(#SVGID_7_);}
	.st24{fill:url(#SVGID_8_);}
	.st25{fill:url(#SVGID_9_);}
</style>
<g>
	<path class="st2" d="M62,31.1c0-2.9,0.3-5.9-0.1-8.7c-1-7.1-5.1-12.1-12.1-14c-10-2.8-20.1-2.5-30,0.5C13.6,10.8,9.8,15,9.1,21.5
		c-0.7,6.6-1.2,13.4,0.4,19.9c1.4,5.9,4.5,10.7,10.9,12.3c1.5,0.4,2.3,1.3,1.8,2.8c-0.5,1.5-1.7,1.6-3.1,1.3
		c-7.9-2-11.9-7.8-13.7-15.1C3.4,35.1,3.8,27.3,5,19.6c1.3-7.7,6.2-12.7,13.5-14.9c9.8-2.9,19.8-3.5,29.9-1.3
		c10.4,2.3,17.3,9.1,18,20.6c0.4,6.5,0.6,13-0.7,19.4c-1.7,7.7-6.8,12.1-13.9,14.7c-5.7,2-11.7,2.4-17.7,2.1
		c-1.8-0.1-3.1,0.4-4.2,1.7c-1.5,1.7-3.1,3.2-4.7,4.7c-1.1,1.1-2.3,1.7-3.5,0.4c-1.2-1.3-0.5-2.5,0.5-3.5c2.1-2.1,4.3-4.2,6.3-6.4
		c1-1,2.1-1.2,3.5-1.2c5.5,0,11.1,0.2,16.5-1.4c9.2-2.7,13.3-7.7,13.7-17.3c0.1-2,0-4.1,0-6.1C62.1,31.1,62.1,31.1,62,31.1z"/>
	<path class="st2" d="M16.5,25.4c0-3.5,1.9-6.1,4.9-7.3c2.7-1,4.4-0.4,6.7,2.2c1.3,1.5,2.4,3.1,3.3,4.9c1.1,2.3,0.5,4.4-1.6,5.8
		c-1,0.7-2.1,0.9-3-0.1c-0.8-0.8-0.8-1.8-0.2-2.8c0.9-1.5-1.5-6.1-3.2-6c-1.3,0-2.2,0.9-2.4,2.2c-0.2,0.9,0,1.7,0.4,2.5
		c3.8,8.9,10.1,15.3,19,19c0.6,0.3,1.3,0.4,2,0.5c1.3,0.1,2-0.8,2.6-1.7c0.7-1.2-0.4-1.7-1-2.2c-0.8-0.7-1.7-1.2-2.5-1.8
		c-0.8-0.6-1.5-0.9-2.4,0.1c-0.8,0.9-1.9,0.8-2.7-0.1c-1-0.9-0.9-1.9-0.2-3c1.3-2,3.6-2.7,5.8-1.7c2.4,1.1,4.4,2.6,6.2,4.5
		c1.9,2.1,1.9,4.2,0.4,6.8c-1.6,2.7-4.4,4.2-7.3,3.5c-4.3-1-8-3.3-11.5-5.9c-5.8-4.3-9.8-10.1-12.6-16.8
		C16.7,26.9,16.6,25.9,16.5,25.4z"/>
	<path class="st2" d="M54.2,29.4c-0.1,1-0.5,2.1-2,2.1c-1.8,0-2.2-1.2-2.3-2.7c-0.4-5.1-2.9-8.8-7.4-11.1c-1.5-0.8-3.2-1.1-4.9-1.2
		c-1.6-0.1-3-0.7-2.7-2.6c0.3-1.7,1.7-1.9,3.2-1.7C47.1,12.9,54.4,20.5,54.2,29.4z"/>
	<path class="st2" d="M37.7,19.6c4.3,0.1,8.9,4.6,8.9,9.3c0,1.2-0.4,2.2-1.7,2.5c-1.5,0.3-2.4-0.5-2.6-1.8c-0.4-3.4-2.2-5.2-5.5-5.7
		c-1.4-0.2-2.2-1-2-2.4C35,20,36,19.6,37.7,19.6z"/>
</g>
</svg>
