<?xml version="1.0" encoding="iso-8859-1"?>
<!-- Generator: Adobe Illustrator 19.0.0, SVG Export Plug-In . SVG Version: 6.00 Build 0)  -->
<svg xmlns="http://www.w3.org/2000/svg" xmlns:xlink="http://www.w3.org/1999/xlink" version="1.1" id="Capa_1" x="0px" y="0px" viewBox="0 0 512 512" style="enable-background:new 0 0 512 512;" xml:space="preserve">
<polygon style="fill:#FFE985;" points="256,21.222 225.983,406.94 456.113,406.94 456.113,216.333 "/>
<polygon style="fill:#FFF2B8;" points="55.887,216.333 55.887,406.94 256,406.94 256,21.222 "/>
<polygon style="fill:#FFC1A6;" points="205.972,406.94 160.946,512 55.887,512 55.887,406.94 "/>
<polygon style="fill:#FEA680;" points="456.113,406.94 456.113,512 351.054,512 306.028,406.94 "/>
<polygon style="fill:#FE5F1A;" points="256,236.344 225.983,374.172 256,512 351.054,512 351.054,236.344 "/>
<rect x="160.941" y="236.344" style="fill:#FE834D;" width="95.054" height="275.656"/>
<rect x="240.987" y="301.381" style="fill:#FFFFFF;" width="30.017" height="30.017"/>
<polygon style="fill:#F54100;" points="511.755,255.745 490.523,276.977 256,42.444 245.994,21.222 256,0 "/>
<polygon style="fill:#FE834D;" points="256,0 256,42.444 21.477,276.977 0.245,255.745 "/>
<g>
</g>
<g>
</g>
<g>
</g>
<g>
</g>
<g>
</g>
<g>
</g>
<g>
</g>
<g>
</g>
<g>
</g>
<g>
</g>
<g>
</g>
<g>
</g>
<g>
</g>
<g>
</g>
<g>
</g>
</svg>
