<?xml version="1.0" encoding="UTF-8" standalone="no"?>
<!-- Created with Inkscape (http://www.inkscape.org/) -->

<svg
   xmlns:dc="http://purl.org/dc/elements/1.1/"
   xmlns:cc="http://creativecommons.org/ns#"
   xmlns:rdf="http://www.w3.org/1999/02/22-rdf-syntax-ns#"
   xmlns:svg="http://www.w3.org/2000/svg"
   xmlns="http://www.w3.org/2000/svg"
   xmlns:sodipodi="http://sodipodi.sourceforge.net/DTD/sodipodi-0.dtd"
   xmlns:inkscape="http://www.inkscape.org/namespaces/inkscape"
   width="1024"
   height="1024"
   viewBox="0 0 270.93333 270.93334"
   version="1.1"
   id="svg8"
   inkscape:version="0.92.4 (5da689c313, 2019-01-14)"
   sodipodi:docname="skull05.svg">
  <defs
     id="defs2" />
  <sodipodi:namedview
     id="base"
     pagecolor="#ffffff"
     bordercolor="#666666"
     borderopacity="1.0"
     inkscape:pageopacity="0.0"
     inkscape:pageshadow="2"
     inkscape:zoom="0.49497475"
     inkscape:cx="489.12842"
     inkscape:cy="482.2372"
     inkscape:document-units="px"
     inkscape:current-layer="layer1"
     showgrid="false"
     units="px"
     inkscape:showpageshadow="false"
     showguides="true"
     inkscape:guide-bbox="true"
     inkscape:window-width="1366"
     inkscape:window-height="715"
     inkscape:window-x="-8"
     inkscape:window-y="-8"
     inkscape:window-maximized="1" />
  <metadata
     id="metadata5">
    <rdf:RDF>
      <cc:Work
         rdf:about="">
        <dc:format>image/svg+xml</dc:format>
        <dc:type
           rdf:resource="http://purl.org/dc/dcmitype/StillImage" />
        <dc:title></dc:title>
      </cc:Work>
    </rdf:RDF>
  </metadata>
  <g
     inkscape:label="Layer 1"
     inkscape:groupmode="layer"
     id="layer1"
     transform="translate(0,-26.06665)">
    <path
       style="fill:#cccccc;stroke:#000000;stroke-width:1.85208333;stroke-linecap:round;stroke-linejoin:round;stroke-miterlimit:4;stroke-dasharray:none"
       d="m 204.51392,147.27886 c 0,10.96586 -29.67049,39.24678 -32.56769,49.9136 -9.62132,35.42352 -5.77351,48.35314 -35.72361,48.35313 -29.73322,0 -30.41089,-19.41802 -41.424067,-54.50658 -3.420833,-10.89897 -28.379139,-29.88476 -28.379139,-41.11432 10e-7,-47.38245 45.778686,-72.245244 72.346206,-72.403179 19.76455,-0.117494 65.7483,22.37489 65.7483,69.757349 z"
       id="path872"
       inkscape:connector-curvature="0"
       sodipodi:nodetypes="sssssss" />
    <path
       sodipodi:nodetypes="scscs"
       inkscape:connector-curvature="0"
       id="path1058"
       d="m 102.96583,113.80154 c -3.849914,7.24498 14.23599,26.18042 14.23599,26.18042 0,0 15.44756,-20.39992 11.81284,-27.19125 -3.87138,-7.23352 -12.82249,5.96388 -12.82249,5.96388 0,0 -9.18777,-12.55305 -13.22634,-4.95305 z"
       style="fill:#000000;stroke:#000000;stroke-width:1.85208333;stroke-linecap:round;stroke-linejoin:round;stroke-miterlimit:4;stroke-dasharray:none" />
    <path
       style="fill:#000000;stroke:#000000;stroke-width:1.85208333;stroke-linecap:round;stroke-linejoin:round;stroke-miterlimit:4;stroke-dasharray:none"
       d="m 167.9675,112.19792 c 3.84992,7.24498 -14.23599,26.18042 -14.23599,26.18042 0,0 -15.44756,-20.39992 -11.81284,-27.19125 3.87138,-7.23352 12.82249,5.96388 12.82249,5.96388 0,0 9.18777,-12.55305 13.22634,-4.95305 z"
       id="path1060"
       inkscape:connector-curvature="0"
       sodipodi:nodetypes="scscs" />
    <path
       style="fill:#000000;stroke:#000000;stroke-width:1.85208333;stroke-linecap:round;stroke-linejoin:round;stroke-miterlimit:4;stroke-dasharray:none"
       d="m 141.34042,159.97848 c 1.61243,-3.32854 -6.78685,-11.58693 -6.78685,-11.58693 0,0 -6.60472,9.44447 -4.87025,12.45108 1.84742,3.20238 5.65311,-2.89123 5.65311,-2.89123 0,0 4.31255,5.51872 6.00399,2.02708 z"
       id="path1062"
       inkscape:connector-curvature="0"
       sodipodi:nodetypes="scscs" />
    <path
       style="fill:#000000;stroke:#000000;stroke-width:1.85208333;stroke-linecap:round;stroke-linejoin:round;stroke-miterlimit:4;stroke-dasharray:none"
       d="m 154.27522,196.38469 c 0,4.79398 -10.52434,24.06482 -18.62408,24.06482 -8.09974,0 -21.53209,-19.00357 -21.53209,-23.79755 0,-4.79398 13.24788,-6.67577 21.34761,-6.67577 8.09975,0 18.80856,1.61452 18.80856,6.4085 z"
       id="path1064"
       inkscape:connector-curvature="0"
       sodipodi:nodetypes="sssss" />
  </g>
</svg>
