<?xml version="1.0" encoding="iso-8859-1"?>
<!-- Generator: Adobe Illustrator 19.0.0, SVG Export Plug-In . SVG Version: 6.00 Build 0)  -->
<svg version="1.1" id="Layer_1" xmlns="http://www.w3.org/2000/svg" xmlns:xlink="http://www.w3.org/1999/xlink" x="0px" y="0px"
	 viewBox="0 0 512 512" style="enable-background:new 0 0 512 512;" xml:space="preserve">
<circle style="fill:#EBEDEC;" cx="256" cy="256" r="244.416"/>
<path style="fill:#BEC8D6;" d="M256.005,512c-68.38,0-132.667-26.629-181.02-74.98C26.633,388.667,0.005,324.38,0.005,256
	s26.629-132.667,74.98-181.02C123.338,26.629,187.625,0,256.005,0s132.667,26.629,181.02,74.98
	c41.86,41.859,68.06,97.305,73.774,156.125c5.637,58.019-8.769,116.664-40.564,165.132c-3.509,5.349-10.688,6.841-16.04,3.331
	c-5.349-3.509-6.84-10.691-3.331-16.04c60.125-91.655,47.416-214.528-30.222-292.167C329.86,0.58,182.147,0.58,91.365,91.362
	c-90.78,90.782-90.78,238.494,0,329.275c88.033,88.033,229.609,90.691,320.883,7.989l-37.298-37.298
	c-4.523-4.523-4.523-11.858,0-16.383c4.522-4.523,11.858-4.523,16.382,0l45.69,45.691c2.172,2.172,3.393,5.118,3.393,8.191
	s-1.221,6.019-3.393,8.191C388.672,485.371,324.385,512,256.005,512z"/>
<path style="fill:#4C5870;" d="M411.905,361.046c-0.709-0.91-17.607-22.55-38.884-43.827
	c-21.278-21.277-42.918-38.176-43.828-38.884l-8.073-6.284l-31.836,31.835l-81.165-81.165l31.836-31.834l-6.284-8.073
	c-0.709-0.91-17.607-22.55-38.884-43.827c-21.278-21.278-42.918-38.176-43.828-38.885l-7.412-5.77l-7.176,6.061
	c-0.974,0.822-23.899,20.534-26.943,53.55c-2.123,23.043,3.08,48.203,15.467,74.779c13.87,29.761,36.488,60.436,67.223,91.171
	c68.717,68.718,122.731,83.142,155.942,83.141c3.378,0,6.745-0.153,10.007-0.453c33.015-3.042,52.728-25.968,53.55-26.943
	l6.061-7.176L411.905,361.046z"/>
<g>
</g>
<g>
</g>
<g>
</g>
<g>
</g>
<g>
</g>
<g>
</g>
<g>
</g>
<g>
</g>
<g>
</g>
<g>
</g>
<g>
</g>
<g>
</g>
<g>
</g>
<g>
</g>
<g>
</g>
</svg>
