<?xml version="1.0" encoding="utf-8"?>
<!-- Generator: Adobe Illustrator 16.0.0, SVG Export Plug-In . SVG Version: 6.00 Build 0)  -->
<!DOCTYPE svg PUBLIC "-//W3C//DTD SVG 1.1//EN" "http://www.w3.org/Graphics/SVG/1.1/DTD/svg11.dtd">
<svg version="1.1" id="Layer_1" xmlns="http://www.w3.org/2000/svg" xmlns:xlink="http://www.w3.org/1999/xlink" x="0px" y="0px"
	 width="212.795px" height="220.59px" viewBox="0 0 212.795 220.59" enable-background="new 0 0 212.795 220.59"
	 xml:space="preserve">
<path fill="#10003B" d="M106.376,210.686c-27.937,0-54.665-11.933-73.333-32.735c-16.236-18.078-25.178-41.437-25.178-65.776
	c0-24.338,8.942-47.696,25.179-65.775c18.667-20.802,45.395-32.734,73.332-32.734c27.936,0,54.665,11.933,73.333,32.734
	c16.236,18.079,25.178,41.438,25.178,65.775c0,24.339-8.941,47.698-25.179,65.776C161.041,198.753,134.312,210.686,106.376,210.686
	 M106.376,17.664c-26.802,0-52.446,11.447-70.355,31.406c-15.578,17.344-24.156,39.754-24.156,63.104
	c0,23.351,8.578,45.762,24.155,63.104c17.91,19.959,43.554,31.407,70.356,31.407s52.445-11.448,70.354-31.407
	c15.577-17.343,24.156-39.755,24.156-63.104s-8.579-45.76-24.154-63.104C158.821,29.111,133.178,17.664,106.376,17.664"/>
<path fill="#10003B" d="M106.376,210.686c-32.833,0-59.544-44.192-59.544-98.512c0-54.318,26.711-98.51,59.544-98.51
	s59.544,44.191,59.544,98.51C165.92,166.493,139.209,210.686,106.376,210.686 M106.376,17.664c-30.627,0-55.544,42.396-55.544,94.51
	s24.917,94.512,55.544,94.512s55.544-42.398,55.544-94.512S137.003,17.664,106.376,17.664"/>
<path fill="#10003B" d="M106.376,68.864c-27.749,0-54.338-7.095-72.951-19.463c-0.484-0.323-0.804-0.838-0.877-1.415
	c-0.073-0.576,0.107-1.155,0.495-1.587c18.668-20.804,45.397-32.735,73.333-32.735c27.936,0,54.665,11.932,73.333,32.735
	c0.387,0.432,0.567,1.011,0.495,1.587c-0.073,0.577-0.394,1.092-0.877,1.415C160.715,61.77,134.125,68.864,106.376,68.864
	 M37.612,47.34c17.86,11.159,42.755,17.524,68.764,17.524c26.01,0,50.903-6.365,68.764-17.524
	c-17.82-18.89-42.746-29.676-68.764-29.676C80.358,17.664,55.432,28.45,37.612,47.34"/>
<path fill="#10003B" d="M106.376,210.685c-27.936,0-54.665-11.932-73.333-32.734c-0.388-0.433-0.568-1.012-0.495-1.587
	c0.073-0.577,0.393-1.093,0.877-1.415c18.613-12.369,45.202-19.463,72.951-19.463s54.339,7.094,72.951,19.463
	c0.483,0.322,0.804,0.838,0.877,1.415c0.072,0.575-0.108,1.154-0.495,1.587C161.041,198.753,134.312,210.685,106.376,210.685
	 M37.612,177.009c17.82,18.89,42.746,29.676,68.764,29.676c26.018,0,50.943-10.786,68.764-29.676
	c-17.86-11.159-42.754-17.523-68.764-17.523C80.367,159.485,55.472,165.85,37.612,177.009"/>
<path fill="#10003B" d="M106.376,210.685c-1.104,0-2-0.896-2-2V15.664c0-1.104,0.896-2,2-2s2,0.896,2,2v193.021
	C108.376,209.789,107.48,210.685,106.376,210.685"/>
<path fill="#10003B" d="M202.887,114.174H9.866c-1.105,0-2-0.896-2-2c0-1.104,0.895-2,2-2h193.021c1.104,0,2,0.896,2,2
	C204.887,113.278,203.99,114.174,202.887,114.174"/>
</svg>
