<?xml version="1.0" encoding="utf-8"?>
<!-- Generator: Adobe Illustrator 18.0.0, SVG Export Plug-In . SVG Version: 6.00 Build 0)  -->
<!DOCTYPE svg PUBLIC "-//W3C//DTD SVG 1.1//EN" "http://www.w3.org/Graphics/SVG/1.1/DTD/svg11.dtd">
<svg version="1.1" id="Layer_1" xmlns="http://www.w3.org/2000/svg" xmlns:xlink="http://www.w3.org/1999/xlink" x="0px" y="0px"
	 viewBox="0 0 63 64.5" enable-background="new 0 0 63 64.5" xml:space="preserve">
<g>
	<g>
		<path fill="#4E4F50" d="M59.6,1.6C57.9,1.2,55.7,1,53,0.9c-2.8-0.1-4.7,0-5.9,0.4c-1.2,0.4-3.2,1.5-6,3.5c-2.7,1.9-6.4,5-10.9,9.3
			c-4.5,4.3-8.5,8.5-12,12.5c-3.1,3.6-6.4,7.6-9.7,11.9c0,0,0,0,0-0.1c-0.3,0.3-0.6,0.7-0.9,1c0,0-0.1,0.1-0.1,0.1
			c-3.2,3.8-7.6,10.8-6.1,16.3c0.1,0.1,0.2,0.3,0.2,0.4c0.5,0.3,1,0.6,1.5,1c0.6,0.2,1.2,0.4,1.8,0.7c0.6,0,1.2,0.1,1.9,0.2
			c3.3-0.4,6.4-1.3,9.3-2.8c0.5-0.5,1-0.9,1.5-1.4c0-0.1,0.1-0.1,0.1-0.2c5.3-8,11.9-16.1,19.7-24.2c7.7-8,15-14.1,21.5-18
			c1.6-0.9,2.6-1.6,3.1-2.2c0.6-0.6,1-1.4,1.2-2.4c0.2-1.2,0-2.3-0.6-3.3C61.9,2.5,60.9,1.9,59.6,1.6z"/>
	</g>
	<g>
		<path fill="#4E4F50" d="M50.8,41.9C49,39.3,46,35.8,42,31.6c-4-4.2-8.1-8.1-11.9-11.4c-3.3-2.8-6.9-5.8-10.8-8.7
			c-0.2-0.1-0.4-0.2-0.7-0.4c-3.3-3.3-6.9-5-11.1-6.6C7.4,4.4,7.3,4.3,7.2,4.2C5.4,3.8,3.6,3.7,2,4.2C1.8,4.3,1.6,4.4,1.4,4.6
			C1.1,5.4,0.7,6.3,0.4,7.2c0,0.2-0.1,0.5-0.2,0.7c0,0.5-0.1,0.9-0.1,1.4c0.4,2.8,1.1,5.4,2.2,7.9c0.4,0.8,0.9,1.6,1.5,2.2
			c0.1,0.1,0.3,0.2,0.4,0.3c7.6,5,15.4,11.3,23,18.7c7.7,7.4,13.4,14.2,17.2,20.4c0.9,1.5,1.6,2.5,2.1,3c0.6,0.6,1.4,1,2.2,1.2
			c1.1,0.2,2.2,0,3.1-0.6c1-0.6,1.6-1.6,1.8-2.8c0.3-1.6,0.6-3.7,0.7-6.3c0.1-2.6,0-4.5-0.4-5.6C53.8,46.5,52.7,44.6,50.8,41.9z"/>
	</g>
</g>
</svg>
