<?xml version="1.0" encoding="UTF-8" standalone="no"?>
<!-- Created with Inkscape (http://www.inkscape.org/) -->

<svg
   xmlns:dc="http://purl.org/dc/elements/1.1/"
   xmlns:cc="http://creativecommons.org/ns#"
   xmlns:rdf="http://www.w3.org/1999/02/22-rdf-syntax-ns#"
   xmlns:svg="http://www.w3.org/2000/svg"
   xmlns="http://www.w3.org/2000/svg"
   xmlns:sodipodi="http://sodipodi.sourceforge.net/DTD/sodipodi-0.dtd"
   xmlns:inkscape="http://www.inkscape.org/namespaces/inkscape"
   width="1024"
   height="1024"
   viewBox="0 0 270.93333 270.93334"
   version="1.1"
   id="svg8"
   inkscape:version="0.92.4 (5da689c313, 2019-01-14)"
   sodipodi:docname="skull03.svg">
  <defs
     id="defs2" />
  <sodipodi:namedview
     id="base"
     pagecolor="#ffffff"
     bordercolor="#666666"
     borderopacity="1.0"
     inkscape:pageopacity="0.0"
     inkscape:pageshadow="2"
     inkscape:zoom="0.49497475"
     inkscape:cx="447.56273"
     inkscape:cy="558.11714"
     inkscape:document-units="px"
     inkscape:current-layer="layer1"
     showgrid="false"
     units="px"
     inkscape:showpageshadow="false"
     showguides="true"
     inkscape:guide-bbox="true"
     inkscape:window-width="1366"
     inkscape:window-height="715"
     inkscape:window-x="-8"
     inkscape:window-y="-8"
     inkscape:window-maximized="1" />
  <metadata
     id="metadata5">
    <rdf:RDF>
      <cc:Work
         rdf:about="">
        <dc:format>image/svg+xml</dc:format>
        <dc:type
           rdf:resource="http://purl.org/dc/dcmitype/StillImage" />
        <dc:title></dc:title>
      </cc:Work>
    </rdf:RDF>
  </metadata>
  <g
     inkscape:label="Layer 1"
     inkscape:groupmode="layer"
     id="layer1"
     transform="translate(0,-26.06665)">
    <path
       style="fill:#cccccc;stroke:#000000;stroke-width:1.85208333;stroke-linecap:round;stroke-linejoin:round;stroke-miterlimit:4;stroke-dasharray:none"
       d="m 204.51392,140.41497 c 0,10.96586 -31.80865,34.97047 -34.70585,45.63729 -9.62132,35.42352 -3.63535,52.62945 -33.58545,52.62944 -29.73322,0 -30.41089,-19.41802 -41.424065,-54.50658 -3.420833,-10.89897 -28.379139,-29.88476 -28.379139,-41.11432 10e-7,-47.38245 28.566595,-88.439345 67.535344,-88.439348 38.96875,-6e-6 70.55916,38.411058 70.55916,85.793518 z"
       id="path872"
       inkscape:connector-curvature="0"
       sodipodi:nodetypes="sssssss" />
    <path
       style="fill:#000000;stroke:#000000;stroke-width:1.0583334;stroke-linecap:round;stroke-linejoin:round;stroke-miterlimit:4;stroke-dasharray:none"
       d="m 129.16546,124.5818 c -0.0303,5.22107 -3.51516,10.26529 -7.7838,11.2666 -4.26863,1.00132 -10.28381,-10.60189 -34.001066,-3.76614 -4.990033,1.43822 29.841926,-14.13969 34.110556,-15.14101 4.26864,-1.00132 7.70454,2.41949 7.67431,7.64055 z"
       id="path970"
       inkscape:connector-curvature="0"
       sodipodi:nodetypes="sssss" />
    <path
       style="fill:none;stroke:#000000;stroke-width:1.32291663;stroke-linecap:round;stroke-linejoin:round;stroke-miterlimit:4;stroke-dasharray:none;stroke-opacity:1"
       d="m 117.77199,192.46287 v 18.14285"
       id="path901"
       inkscape:connector-curvature="0" />
    <path
       inkscape:connector-curvature="0"
       id="path903"
       d="m 123.24008,192.46287 v 18.14285"
       style="fill:none;stroke:#000000;stroke-width:1.32291663;stroke-linecap:round;stroke-linejoin:round;stroke-miterlimit:4;stroke-dasharray:none;stroke-opacity:1" />
    <path
       style="fill:none;stroke:#000000;stroke-width:1.32291663;stroke-linecap:round;stroke-linejoin:round;stroke-miterlimit:4;stroke-dasharray:none;stroke-opacity:1"
       d="m 128.70817,192.46287 v 18.14285"
       id="path905"
       inkscape:connector-curvature="0" />
    <path
       inkscape:connector-curvature="0"
       id="path907"
       d="m 134.17626,192.46287 v 18.14285"
       style="fill:none;stroke:#000000;stroke-width:1.32291663;stroke-linecap:round;stroke-linejoin:round;stroke-miterlimit:4;stroke-dasharray:none;stroke-opacity:1" />
    <path
       style="fill:none;stroke:#000000;stroke-width:1.32291663;stroke-linecap:round;stroke-linejoin:round;stroke-miterlimit:4;stroke-dasharray:none;stroke-opacity:1"
       d="m 139.64435,192.46287 v 18.14285"
       id="path909"
       inkscape:connector-curvature="0" />
    <path
       inkscape:connector-curvature="0"
       id="path911"
       d="m 145.11245,192.46287 v 18.14285"
       style="fill:none;stroke:#000000;stroke-width:1.32291663;stroke-linecap:round;stroke-linejoin:round;stroke-miterlimit:4;stroke-dasharray:none;stroke-opacity:1" />
    <path
       style="fill:none;stroke:#000000;stroke-width:1.32291663;stroke-linecap:round;stroke-linejoin:round;stroke-miterlimit:4;stroke-dasharray:none;stroke-opacity:1"
       d="m 150.58054,192.46287 v 18.14285"
       id="path913"
       inkscape:connector-curvature="0" />
    <ellipse
       style="fill:#cccccc;stroke:#000000;stroke-width:1.0583334;stroke-linecap:round;stroke-linejoin:round;stroke-miterlimit:4;stroke-dasharray:none"
       id="path915"
       cx="155.3179"
       cy="132.57582"
       rx="3.4017851"
       ry="7.5595241"
       transform="rotate(9.5564461)" />
    <ellipse
       transform="matrix(-0.98612252,0.16601918,0.16601918,0.98612252,0,0)"
       ry="7.5595241"
       rx="3.4017851"
       cy="177.00572"
       cx="-110.86405"
       id="ellipse919"
       style="fill:#cccccc;stroke:#000000;stroke-width:1.0583334;stroke-linecap:round;stroke-linejoin:round;stroke-miterlimit:4;stroke-dasharray:none" />
    <path
       sodipodi:nodetypes="cscsc"
       inkscape:connector-curvature="0"
       id="path938"
       d="m 120.24248,248.79131 c -0.007,4.10682 6.60961,-1.21823 15.01769,-1.14629 8.40808,0.0719 15.42405,5.51362 15.43069,1.40679 0.006,-4.10683 -6.80411,-7.49439 -15.21221,-7.56632 -8.40808,-0.0719 -15.22955,3.19899 -15.23617,7.30582 z"
       style="fill:#cccccc;stroke:#000000;stroke-width:1.58749998;stroke-linecap:round;stroke-linejoin:round;stroke-miterlimit:4;stroke-dasharray:none" />
    <path
       sodipodi:nodetypes="sssss"
       inkscape:connector-curvature="0"
       id="path964"
       d="m 140.69867,123.50735 c 0.0303,5.22107 3.51516,10.26529 7.7838,11.2666 4.26863,1.00132 10.28381,-10.60189 34.00119,-3.76614 4.99006,1.43822 -29.84205,-14.13969 -34.11068,-15.14101 -4.26864,-1.00132 -7.70454,2.41949 -7.67431,7.64055 z"
       style="fill:#000000;stroke:#000000;stroke-width:1.0583334;stroke-linecap:round;stroke-linejoin:round;stroke-miterlimit:4;stroke-dasharray:none" />
    <ellipse
       style="fill:#cccccc;stroke:none;stroke-width:1.05833328;stroke-linecap:round;stroke-linejoin:round;stroke-miterlimit:4;stroke-dasharray:none"
       id="path966"
       cx="122.66759"
       cy="121.79583"
       rx="3.4745038"
       ry="3.2072344" />
    <ellipse
       ry="3.2072344"
       rx="3.4745038"
       cy="120.19222"
       cx="146.83698"
       id="ellipse968"
       style="fill:#cccccc;stroke:none;stroke-width:1.05833328;stroke-linecap:round;stroke-linejoin:round;stroke-miterlimit:4;stroke-dasharray:none" />
    <path
       style="fill:#cccccc;stroke:#000000;stroke-width:1.58749998;stroke-linecap:round;stroke-linejoin:round;stroke-miterlimit:4;stroke-dasharray:none"
       d="m 120.24248,257.7872 c -0.007,4.10682 6.60961,-1.21823 15.01769,-1.14629 8.40808,0.0719 15.42405,5.51362 15.43069,1.40679 0.006,-4.10683 -6.80411,-7.49439 -15.21221,-7.56632 -8.40808,-0.0719 -15.22955,3.19899 -15.23617,7.30582 z"
       id="path972"
       inkscape:connector-curvature="0"
       sodipodi:nodetypes="cscsc" />
    <path
       sodipodi:nodetypes="cscsc"
       inkscape:connector-curvature="0"
       id="path974"
       d="m 120.24248,266.78309 c -0.007,4.10682 6.60961,-1.21823 15.01769,-1.14629 8.40808,0.0719 15.42405,5.51362 15.43069,1.40679 0.006,-4.10683 -6.80411,-7.49439 -15.21221,-7.56632 -8.40808,-0.0719 -15.22955,3.19899 -15.23617,7.30582 z"
       style="fill:#cccccc;stroke:#000000;stroke-width:1.58749998;stroke-linecap:round;stroke-linejoin:round;stroke-miterlimit:4;stroke-dasharray:none" />
  </g>
</svg>
