<?xml version="1.0" encoding="iso-8859-1"?>
<!-- Generator: Adobe Illustrator 19.0.0, SVG Export Plug-In . SVG Version: 6.00 Build 0)  -->
<svg version="1.1" id="Capa_1" xmlns="http://www.w3.org/2000/svg" xmlns:xlink="http://www.w3.org/1999/xlink" x="0px" y="0px"
	 viewBox="0 0 512 512" style="enable-background:new 0 0 512 512;" xml:space="preserve">
<path style="fill:#FFD178;" d="M512,305.483c0,6.338-2.913,12.321-7.893,16.212l-66.657,52.077c-1.68,1.313-3.748,2.026-5.877,2.026
	c-5.287,0-9.573-4.305-9.573-9.616v-20.519h-50l0,0H162v-40.18c0-22.191,17.909-40.18,40-40.18h220v-20.519
	c0-5.311,4.286-9.616,9.573-9.616c2.129,0,4.197,0.713,5.877,2.026l66.657,52.077C509.087,293.162,512,299.145,512,305.483z"/>
<g>
	<path style="fill:#FFB05F;" d="M508.919,294.652c1.986,3.214,3.081,6.955,3.081,10.831c0,6.338-2.913,12.321-7.894,16.212
		l-66.657,52.077c-1.68,1.313-3.748,2.026-5.877,2.026c-5.287,0-9.573-4.305-9.573-9.616v-20.519h-50l0,0H162V324h210l0,0h40
		c5.523,0,10,4.511,10,10.076v10.443c0,5.655,4.859,10.169,10.612,9.56c1.847-0.196,3.583-0.991,5.052-2.138l66.442-51.91
		C506.041,298.521,507.658,296.692,508.919,294.652z"/>
	<path style="fill:#FFB05F;" d="M372,345.663L372,345.663H162v-40.18c0-22.191,17.909-40.18,40-40.18h185.333v80.36L372,345.663
		L372,345.663z"/>
</g>
<g>
	<path style="fill:#FF904E;" d="M387.333,324v21.663H372H162V324h210H387.333z"/>
	<path style="fill:#FF904E;" d="M284.667,345.663L284.667,345.663h-210v-40.18c0-22.191,17.909-40.18,40-40.18H300v80.36
		L284.667,345.663L284.667,345.663z"/>
</g>
<path style="fill:#FF733D;" d="M300,324v21.663h-15.333H162V324H300z"/>
<path style="fill:#FFECA1;" d="M230,305.483C230,369.179,178.411,421,115,421S0,369.179,0,305.483s51.589-115.517,115-115.517
	S230,241.787,230,305.483z"/>
<path style="fill:#FFD178;" d="M230,305.483C230,369.179,178.411,421,115,421c-9.536,0-18.801-1.18-27.667-3.387
	c50.091-12.474,87.333-58.012,87.333-112.129c0-54.118-37.243-99.655-87.333-112.129c8.866-2.208,18.131-3.387,27.667-3.387
	C178.411,189.966,230,241.787,230,305.483z"/>
<path style="fill:#F53737;" d="M115,91c-39.977,0-72.5,32.68-72.5,72.85c0,23.007,10.516,44.194,28.852,58.127
	c2.025,1.538,4.683,1.939,7.068,1.073c11.718-4.274,24.025-6.44,36.581-6.44s24.862,2.167,36.581,6.44
	c0.83,0.302,1.693,0.451,2.552,0.451c1.607,0,3.196-0.521,4.516-1.523c18.335-13.933,28.852-35.12,28.852-58.127
	C187.5,123.68,154.977,91,115,91z M152.649,207.445c-12.137-3.95-24.782-5.95-37.649-5.95s-25.512,2.001-37.649,5.95
	C64.687,196.443,57.5,180.764,57.5,163.85c0-31.835,25.794-57.735,57.5-57.735s57.5,25.9,57.5,57.735
	C172.5,180.764,165.313,196.443,152.649,207.445z"/>
<path style="fill:#DB3131;" d="M140,158.782v40.225H90v-40.225c0-5.523,4.477-10,10-10h30C135.523,148.782,140,153.259,140,158.782z
	"/>
<g>
	<path style="fill:#F53737;" d="M115,189.966c-63.411,0-115,51.821-115,115.517S51.589,421,115,421s115-51.821,115-115.517
		S178.411,189.966,115,189.966z M115,390.865c-46.869,0-85-38.302-85-85.382s38.131-85.382,85-85.382s85,38.302,85,85.382
		S161.869,390.865,115,390.865z"/>
	<path style="fill:#F53737;" d="M160.295,270.655l-40.962,41.147c-1.463,1.47-3.379,2.205-5.295,2.205
		c-1.923,0-3.846-0.741-5.312-2.222c-2.924-2.956-2.917-7.74,0.017-10.687l40.962-41.147c2.932-2.946,7.681-2.939,10.606,0.017
		C163.236,262.924,163.229,267.708,160.295,270.655z"/>
</g>
<path style="fill:#DB3131;" d="M130,305.483c0,8.308-6.729,15.068-15,15.068s-15-6.759-15-15.068c0-8.308,6.729-15.067,15-15.067
	S130,297.175,130,305.483z"/>
<g>
</g>
<g>
</g>
<g>
</g>
<g>
</g>
<g>
</g>
<g>
</g>
<g>
</g>
<g>
</g>
<g>
</g>
<g>
</g>
<g>
</g>
<g>
</g>
<g>
</g>
<g>
</g>
<g>
</g>
</svg>
